<?xml version="1.0" encoding="UTF-8"?> <svg xmlns="http://www.w3.org/2000/svg" width="1402" height="685" viewBox="0 0 1402 685"><defs><linearGradient id="hp_background-a" x1="0%" x2="98.134%" y1="0%" y2="97.753%"><stop offset="0%" stop-color="#4349F3"></stop><stop offset="20%" stop-color="#4A41EA"></stop><stop offset="40%" stop-color="#4F3AE2"></stop><stop offset="60%" stop-color="#5431D9"></stop><stop offset="80%" stop-color="#5728D0"></stop><stop offset="100%" stop-color="#5A1DC8"></stop></linearGradient><linearGradient id="hp_background-b" x1="100%" x2="5.892%" y1="50%" y2="61.169%"><stop offset="0%"></stop><stop offset="0%" stop-opacity=".946"></stop><stop offset="100%" stop-opacity="0"></stop></linearGradient><linearGradient id="hp_background-c" x1="50%" x2="39.058%" y1="93.661%" y2="-29.721%"><stop offset="0%"></stop><stop offset="46.238%" stop-opacity=".946"></stop><stop offset="100%" stop-opacity="0"></stop></linearGradient><linearGradient id="hp_background-d" x1="84.231%" x2="43.783%" y1="16.489%" y2="54.543%"><stop offset="0%"></stop><stop offset="47.054%" stop-opacity=".946"></stop><stop offset="100%" stop-opacity="0"></stop></linearGradient></defs><g fill="none" fill-rule="evenodd"><polygon fill="url(#hp_background-a)" points="1.953 .614 1401.953 .614 1401.953 684.614 1.953 684.614"></polygon><path fill="url(#hp_background-b)" d="M-69.9728763,233.971 L51.7599959,95.870424 C66.4439232,79.6499149 82.2927546,71.5396603 99.3064903,71.5396603 L234.31,71.5396603 L234.31,233.971 L-69.9728763,233.971 Z" opacity=".222" transform="scale(-1 1) rotate(-90 0 234.924)"></path><path fill="url(#hp_background-b)" d="M980.560763,684.614 L1102.29364,546.513424 C1116.97756,530.292915 1132.82639,522.18266 1149.84013,522.18266 L1401.953,522.18266 L1401.953,684.614 L980.560763,684.614 Z" opacity=".1"></path><path fill="url(#hp_background-b)" fill-rule="nonzero" d="M156.952063,414.436195 L167.011728,429.885909 L193.460591,470.506284 L232.000903,529.649173 L81.9555243,529.649173 L94.0340493,511.10088 L120.464481,470.513192 L156.952063,414.436195 Z M156.959073,458.431217 L140.578563,483.606077 L126.224247,505.649173 L187.715331,505.649173 L173.350683,483.605581 L156.959073,458.431217 Z" opacity=".1" transform="rotate(8 156.978 472.043)"></path><path fill="url(#hp_background-b)" fill-rule="nonzero" d="M1337.43659,77.8806917 L1341.78249,85.5086522 L1351.53503,102.626395 L1365.55155,127.208511 L1309.34123,127.208511 L1313.60063,119.73317 L1323.34638,102.629202 L1337.43659,77.8806917 Z M1332.03578,107.57838 L1326.54858,117.208511 L1348.33826,117.208511 L1342.84712,107.578178 L1337.43962,98.086891 L1332.03578,107.57838 Z" opacity=".333" transform="rotate(-31 1337.446 102.545)"></path><path fill="url(#hp_background-c)" fill-rule="nonzero" d="M416.661334,91.2890159 C415.331222,91.2890159 414.246236,90.2080485 414.246236,88.8779362 C414.246236,87.5478239 415.331222,86.4668565 416.661334,86.4668565 C417.991447,86.4668565 419.072414,87.5478239 419.072414,88.8779362 C419.072414,90.2080485 417.991447,91.2890159 416.661334,91.2890159 Z M400.837016,92.4065514 C399.43859,92.4065514 398.301364,91.2693254 398.301364,89.8668807 C398.301364,88.464436 399.43859,87.3312286 400.837016,87.3312286 C402.239461,87.3312286 403.376687,88.464436 403.376687,89.8668807 C403.376687,91.2693254 402.239461,92.4065514 400.837016,92.4065514 Z M396.600347,103.260429 C395.201921,103.260429 394.064695,102.127221 394.064695,100.724776 C394.064695,99.3223317 395.201921,98.1851058 396.600347,98.1851058 C398.002792,98.1851058 399.140018,99.3223317 399.140018,100.724776 C399.140018,102.127221 398.002792,103.260429 396.600347,103.260429 Z M385.513801,93.0201711 C384.115375,93.0201711 382.978149,91.8829452 382.978149,90.4805005 C382.978149,89.0780558 384.115375,87.9448483 385.513801,87.9448483 C386.916246,87.9448483 388.053471,89.0780558 388.053471,90.4805005 C388.053471,91.8829452 386.916246,93.0201711 385.513801,93.0201711 Z M385.151335,104.987967 C383.74889,104.987967 382.615683,103.846723 382.615683,102.444278 C382.615683,101.04987 383.74889,99.9126444 385.151335,99.9126444 C386.55378,99.9126444 387.686987,101.04987 387.686987,102.444278 C387.686987,103.846723 386.55378,104.987967 385.151335,104.987967 Z M373.879939,103.818995 C372.481513,103.818995 371.344287,102.681769 371.344287,101.283343 C371.344287,99.8808985 372.481513,98.747691 373.879939,98.747691 C375.278366,98.747691 376.41961,99.8808985 376.41961,101.283343 C376.41961,102.681769 375.278366,103.818995 373.879939,103.818995 Z M371.080676,92.3121174 C369.678231,92.3121174 368.545024,91.1829284 368.545024,89.7804837 C368.545024,88.378039 369.678231,87.2448315 371.080676,87.2448315 C372.48312,87.2448315 373.616328,88.378039 373.616328,89.7804837 C373.616328,91.1829284 372.48312,92.3121174 371.080676,92.3121174 Z M357.263983,92.7509339 C355.85752,92.7509339 354.728331,91.6177264 354.728331,90.2193002 C354.728331,88.8168555 355.85752,87.6796296 357.263983,87.6796296 C358.666428,87.6796296 359.799635,88.8168555 359.799635,90.2193002 C359.799635,91.6177264 358.666428,92.7509339 357.263983,92.7509339 Z M343.813373,92.7509339 C342.414947,92.7509339 341.277721,91.613708 341.277721,90.2112633 C341.277721,88.812837 342.414947,87.6796296 343.813373,87.6796296 C345.219836,87.6796296 346.349025,88.812837 346.349025,90.2112633 C346.349025,91.613708 345.219836,92.7509339 343.813373,92.7509339 Z M330.719201,92.6802089 C329.320775,92.6802089 328.183549,91.5510199 328.183549,90.1445567 C328.183549,88.750149 329.320775,87.612923 330.719201,87.612923 C332.121646,87.612923 333.254853,88.750149 333.254853,90.1445567 C333.254853,91.5510199 332.121646,92.6802089 330.719201,92.6802089 Z M336.510615,103.6241 C335.10817,103.6241 333.974962,102.486874 333.974962,101.088448 C333.974962,99.6860029 335.10817,98.548777 336.510615,98.548777 C337.913059,98.548777 339.050285,99.6860029 339.050285,101.088448 C339.050285,102.486874 337.913059,103.6241 336.510615,103.6241 Z M349.369305,103.665892 C347.96686,103.665892 346.833652,102.528666 346.833652,101.13024 C346.833652,99.727795 347.96686,98.590569 349.369305,98.590569 C350.771749,98.590569 351.904957,99.727795 351.904957,101.13024 C351.904957,102.528666 350.771749,103.665892 349.369305,103.665892 Z M361.847044,103.800912 C360.444599,103.800912 359.311392,102.663686 359.311392,101.261242 C359.311392,99.858797 360.444599,98.729608 361.847044,98.729608 C363.24547,98.729608 364.382696,99.858797 364.382696,101.261242 C364.382696,102.663686 363.24547,103.800912 361.847044,103.800912 Z M366.65313,115.662219 C365.254703,115.662219 364.117477,114.529011 364.117477,113.122548 C364.117477,111.72814 365.254703,110.586896 366.65313,110.586896 C368.051556,110.586896 369.188782,111.72814 369.188782,113.122548 C369.188782,114.529011 368.051556,115.662219 366.65313,115.662219 Z M354.444627,115.335116 C353.042183,115.335116 351.908975,114.19789 351.908975,112.795445 C351.908975,111.397019 353.042183,110.259793 354.444627,110.259793 C355.843054,110.259793 356.98028,111.397019 356.98028,112.795445 C356.98028,114.19789 355.843054,115.335116 354.444627,115.335116 Z M342.18268,114.8312 C340.780235,114.8312 339.647027,113.702011 339.647027,112.299566 C339.647027,110.897122 340.780235,109.755877 342.18268,109.755877 C343.585124,109.755877 344.72235,110.897122 344.72235,112.299566 C344.72235,113.702011 343.585124,114.8312 342.18268,114.8312 Z M335.150766,125.806435 C333.752339,125.806435 332.615113,124.669209 332.615113,123.266764 C332.615113,121.86432 333.752339,120.731112 335.150766,120.731112 C336.55321,120.731112 337.690436,121.86432 337.690436,123.266764 C337.690436,124.669209 336.55321,125.806435 335.150766,125.806435 Z M347.425572,126.637856 C346.023128,126.637856 344.88992,125.50063 344.88992,124.102203 C344.88992,122.703777 346.023128,121.562533 347.425572,121.562533 C348.828017,121.562533 349.961225,122.703777 349.961225,124.102203 C349.961225,125.50063 348.828017,126.637856 347.425572,126.637856 Z M359.58304,127.141369 C358.184614,127.141369 357.047388,126.004144 357.047388,124.601699 C357.047388,123.199254 358.184614,122.066047 359.58304,122.066047 C360.985485,122.066047 362.122711,123.199254 362.122711,124.601699 C362.122711,126.004144 360.985485,127.141369 359.58304,127.141369 Z M372.006128,127.38087 C370.607702,127.38087 369.466458,126.243644 369.466458,124.849236 C369.466458,123.438755 370.607702,122.309566 372.006128,122.309566 C373.404555,122.309566 374.541781,123.438755 374.541781,124.849236 C374.541781,126.243644 373.404555,127.38087 372.006128,127.38087 Z M364.64028,138.817023 C363.237835,138.817023 362.104628,137.679797 362.104628,136.281371 C362.104628,134.878926 363.237835,133.745719 364.64028,133.745719 C366.042725,133.745719 367.175932,134.878926 367.175932,136.281371 C367.175932,137.679797 366.042725,138.817023 364.64028,138.817023 Z M352.452674,138.53573 C351.050229,138.53573 349.917022,137.398504 349.917022,136.000078 C349.917022,134.601652 351.050229,133.464426 352.452674,133.464426 C353.855118,133.464426 354.988326,134.601652 354.988326,136.000078 C354.988326,137.398504 353.855118,138.53573 352.452674,138.53573 Z M340.354277,137.674573 C338.951833,137.674573 337.818625,136.537347 337.818625,135.134902 C337.818625,133.736476 338.951833,132.603269 340.354277,132.603269 C341.752704,132.603269 342.88993,133.736476 342.88993,135.134902 C342.88993,136.537347 341.752704,137.674573 340.354277,137.674573 Z M328.125281,136.528105 C326.722836,136.528105 325.58561,135.390879 325.58561,133.992452 C325.58561,132.590008 326.722836,131.452782 328.125281,131.452782 C329.523707,131.452782 330.660933,132.590008 330.660933,133.992452 C330.660933,135.390879 329.523707,136.528105 328.125281,136.528105 Z M322.739733,124.85004 C321.341306,124.85004 320.20408,123.712814 320.20408,122.306351 C320.20408,120.911943 321.341306,119.774717 322.739733,119.774717 C324.142177,119.774717 325.279403,120.911943 325.279403,122.306351 C325.279403,123.712814 324.142177,124.85004 322.739733,124.85004 Z M329.620954,114.378319 C328.222528,114.378319 327.085302,113.245111 327.085302,111.842667 C327.085302,110.440222 328.222528,109.307015 329.620954,109.307015 C331.023399,109.307015 332.156606,110.440222 332.156606,111.842667 C332.156606,113.245111 331.023399,114.378319 329.620954,114.378319 Z M323.77489,103.319098 C322.376463,103.319098 321.239237,102.181872 321.239237,100.779428 C321.239237,99.3769829 322.376463,98.2437754 323.77489,98.2437754 C325.177334,98.2437754 326.310542,99.3769829 326.310542,100.779428 C326.310542,102.181872 325.177334,103.319098 323.77489,103.319098 Z M317.796216,92.6135024 C316.393771,92.6135024 315.260563,91.4762764 315.260563,90.0738317 C315.260563,88.6754055 316.393771,87.5381796 317.796216,87.5381796 C319.202679,87.5381796 320.335886,88.6754055 320.335886,90.0738317 C320.335886,91.4762764 319.202679,92.6135024 317.796216,92.6135024 Z M311.028717,102.638772 C309.626272,102.638772 308.489046,101.501546 308.489046,100.099101 C308.489046,98.700675 309.626272,97.5634491 311.028717,97.5634491 C312.427143,97.5634491 313.564369,98.700675 313.564369,100.099101 C313.564369,101.501546 312.427143,102.638772 311.028717,102.638772 Z M304.199333,112.514554 C302.796889,112.514554 301.663681,111.381347 301.663681,109.978902 C301.663681,108.576458 302.796889,107.439232 304.199333,107.439232 C305.601778,107.439232 306.734985,108.576458 306.734985,109.978902 C306.734985,111.381347 305.601778,112.514554 304.199333,112.514554 Z M297.224884,122.26255 C295.822439,122.26255 294.685213,121.125324 294.685213,119.722879 C294.685213,118.324453 295.822439,117.187227 297.224884,117.187227 C298.62331,117.187227 299.760536,118.324453 299.760536,119.722879 C299.760536,121.125324 298.62331,122.26255 297.224884,122.26255 Z M284.133123,120.776923 C282.730678,120.776923 281.593452,119.639697 281.593452,118.237252 C281.593452,116.834807 282.730678,115.7016 284.133123,115.7016 C285.531549,115.7016 286.668775,116.834807 286.668775,118.237252 C286.668775,119.639697 285.531549,120.776923 284.133123,120.776923 Z M291.281572,111.289726 C289.879128,111.289726 288.741902,110.1525 288.741902,108.754074 C288.741902,107.351629 289.879128,106.218422 291.281572,106.218422 C292.679999,106.218422 293.817224,107.351629 293.817224,108.754074 C293.817224,110.1525 292.679999,111.289726 291.281572,111.289726 Z M298.023353,101.626922 C296.620908,101.626922 295.487701,100.493715 295.487701,99.0872514 C295.487701,97.6888252 296.620908,96.5515993 298.023353,96.5515993 C299.421779,96.5515993 300.559005,97.6888252 300.559005,99.0872514 C300.559005,100.493715 299.421779,101.626922 298.023353,101.626922 Z M304.925872,91.8789267 C303.523427,91.8789267 302.39022,90.7457193 302.39022,89.3432746 C302.39022,87.9448483 303.523427,86.8076224 304.925872,86.8076224 C306.328317,86.8076224 307.461524,87.9448483 307.461524,89.3432746 C307.461524,90.7457193 306.328317,91.8789267 304.925872,91.8789267 Z M291.262284,91.053132 C289.859839,91.053132 288.726631,89.915906 288.726631,88.5174798 C288.726631,87.1150351 289.859839,85.9818276 291.262284,85.9818276 C292.66071,85.9818276 293.801954,87.1150351 293.801954,88.5174798 C293.801954,89.915906 292.66071,91.053132 291.262284,91.053132 Z M284.855643,100.532694 C283.453198,100.532694 282.315972,99.3994863 282.315972,97.9930231 C282.315972,96.5945969 283.453198,95.4573709 284.855643,95.4573709 C286.258088,95.4573709 287.391295,96.5945969 287.391295,97.9930231 C287.391295,99.3994863 286.258088,100.532694 284.855643,100.532694 Z M276.541035,91.1134089 C275.134571,91.1134089 274.001364,89.9802015 274.001364,88.5817752 C274.001364,87.183349 275.134571,86.0421046 276.541035,86.0421046 C277.939461,86.0421046 279.072668,87.183349 279.072668,88.5817752 C279.072668,89.9802015 277.939461,91.1134089 276.541035,91.1134089 Z M271.753434,100.073383 C270.350989,100.073383 269.213763,98.9361571 269.213763,97.5417493 C269.213763,96.1352862 270.350989,95.0020787 271.753434,95.0020787 C273.155879,95.0020787 274.289086,96.1352862 274.289086,97.5417493 C274.289086,98.9361571 273.155879,100.073383 271.753434,100.073383 Z M261.36811,93.1262587 C259.969684,93.1262587 258.832458,91.9930512 258.832458,90.586588 C258.832458,89.1921803 259.969684,88.0549543 261.36811,88.0549543 C262.774573,88.0549543 263.90778,89.1921803 263.90778,90.586588 C263.90778,91.9930512 262.774573,93.1262587 261.36811,93.1262587 Z M253.071986,103.130632 C251.67356,103.130632 250.532316,101.993406 250.532316,100.59498 C250.532316,99.1965537 251.67356,98.0553093 253.071986,98.0553093 C254.474431,98.0553093 255.611657,99.1965537 255.611657,100.59498 C255.611657,101.993406 254.474431,103.130632 253.071986,103.130632 Z M247.119432,92.2835863 C245.721006,92.2835863 244.58378,91.1463604 244.58378,89.7479341 C244.58378,88.3454894 245.721006,87.212282 247.119432,87.212282 C248.521877,87.212282 249.659103,88.3454894 249.659103,89.7479341 C249.659103,91.1463604 248.521877,92.2835863 247.119432,92.2835863 Z M239.753584,101.8833 C238.355158,101.8833 237.217932,100.750093 237.217932,99.3476481 C237.217932,97.9452033 238.355158,96.8079774 239.753584,96.8079774 C241.156029,96.8079774 242.289236,97.9452033 242.289236,99.3476481 C242.289236,100.750093 241.156029,101.8833 239.753584,101.8833 Z M232.208512,92.2128613 C230.810086,92.2128613 229.67286,91.0756354 229.67286,89.6812276 C229.67286,88.2787829 230.810086,87.1455754 232.208512,87.1455754 C233.610956,87.1455754 234.748182,88.2787829 234.748182,89.6812276 C234.748182,91.0756354 233.610956,92.2128613 232.208512,92.2128613 Z M218.380166,92.5608605 C216.977721,92.5608605 215.840495,91.427653 215.840495,90.0252083 C215.840495,88.6227636 216.977721,87.4855377 218.380166,87.4855377 C219.778592,87.4855377 220.919837,88.6227636 220.919837,90.0252083 C220.919837,91.427653 219.778592,92.5608605 218.380166,92.5608605 Z M205.320954,91.286203 C203.962713,91.286203 202.865672,90.1851432 202.865672,88.8349386 C202.865672,87.476697 203.962713,86.3796558 205.320954,86.3796558 C206.675178,86.3796558 207.772219,87.476697 207.772219,88.8349386 C207.772219,90.1851432 206.675178,91.286203 205.320954,91.286203 Z M214.015308,104.59255 C212.632956,104.59255 211.511804,103.475417 211.511804,102.089046 C211.511804,100.706693 212.632956,99.5895597 214.015308,99.5895597 C215.39766,99.5895597 216.514794,100.706693 216.514794,102.089046 C216.514794,103.475417 215.39766,104.59255 214.015308,104.59255 Z M225.795442,103.150323 C224.397015,103.150323 223.259789,102.013097 223.259789,100.610652 C223.259789,99.2162442 224.397015,98.0790183 225.795442,98.0790183 C227.197886,98.0790183 228.335112,99.2162442 228.335112,100.610652 C228.335112,102.013097 227.197886,103.150323 225.795442,103.150323 Z M222.198914,116.893879 C220.79647,116.893879 219.663262,115.760671 219.663262,114.358227 C219.663262,112.9598 220.79647,111.818556 222.198914,111.818556 C223.601359,111.818556 224.734567,112.9598 224.734567,114.358227 C224.734567,115.760671 223.601359,116.893879 222.198914,116.893879 Z M232.875979,111.898122 C231.477553,111.898122 230.340327,110.756877 230.340327,109.36247 C230.340327,107.960025 231.477553,106.826817 232.875979,106.826817 C234.282442,106.826817 235.411631,107.960025 235.411631,109.36247 C235.411631,110.756877 234.282442,111.898122 232.875979,111.898122 Z M236.718838,122.363011 C235.320412,122.363011 234.183186,121.225785 234.183186,119.823341 C234.183186,118.424914 235.320412,117.287688 236.718838,117.287688 C238.117265,117.287688 239.25449,118.424914 239.25449,119.823341 C239.25449,121.225785 238.117265,122.363011 236.718838,122.363011 Z M228.397398,130.018189 C227.007009,130.018189 225.87782,128.889 225.87782,127.494593 C225.87782,126.104203 227.007009,124.970996 228.397398,124.970996 C229.791806,124.970996 230.920995,126.104203 230.920995,127.494593 C230.920995,128.889 229.791806,130.018189 228.397398,130.018189 Z M234.975226,143.078606 C233.608947,143.078606 232.503869,141.973528 232.503869,140.603231 C232.503869,139.236953 233.608947,138.127856 234.975226,138.127856 C236.341504,138.127856 237.450601,139.236953 237.450601,140.603231 C237.450601,141.973528 236.341504,143.078606 234.975226,143.078606 Z M241.752369,133.719599 C240.345906,133.719599 239.212698,132.582373 239.212698,131.179928 C239.212698,129.777483 240.345906,128.640257 241.752369,128.640257 C243.150795,128.640257 244.288021,129.777483 244.288021,131.179928 C244.288021,132.582373 243.150795,133.719599 241.752369,133.719599 Z M245.437704,113.01204 C244.03526,113.01204 242.902052,111.878833 242.902052,110.476388 C242.902052,109.073944 244.03526,107.940736 245.437704,107.940736 C246.836131,107.940736 247.977375,109.073944 247.977375,110.476388 C247.977375,111.878833 246.836131,113.01204 245.437704,113.01204 Z M249.675579,124.861694 C248.273134,124.861694 247.135908,123.728486 247.135908,122.322023 C247.135908,120.923597 248.273134,119.786371 249.675579,119.786371 C251.078024,119.786371 252.211231,120.923597 252.211231,122.322023 C252.211231,123.728486 251.078024,124.861694 249.675579,124.861694 Z M263.111722,127.251475 C261.705259,127.251475 260.572052,126.11425 260.572052,124.711805 C260.572052,123.317397 261.705259,122.180171 263.111722,122.180171 C264.514167,122.180171 265.647375,123.317397 265.647375,124.711805 C265.647375,126.11425 264.514167,127.251475 263.111722,127.251475 Z M257.478636,116.054823 C256.076192,116.054823 254.938966,114.917597 254.938966,113.515152 C254.938966,112.112708 256.076192,110.983519 257.478636,110.983519 C258.877063,110.983519 260.014289,112.112708 260.014289,113.515152 C260.014289,114.917597 258.877063,116.054823 257.478636,116.054823 Z M264.4125,107.330733 C263.014074,107.330733 261.876848,106.197526 261.876848,104.795081 C261.876848,103.392636 263.014074,102.25541 264.4125,102.25541 C265.810926,102.25541 266.95217,103.392636 266.95217,104.795081 C266.95217,106.197526 265.810926,107.330733 264.4125,107.330733 Z M278.225174,110.144463 C276.822729,110.144463 275.685503,109.011256 275.685503,107.612829 C275.685503,106.210385 276.822729,105.073159 278.225174,105.073159 C279.6236,105.073159 280.760826,106.210385 280.760826,107.612829 C280.760826,109.011256 279.6236,110.144463 278.225174,110.144463 Z M270.575621,118.447418 C269.173177,118.447418 268.039969,117.310192 268.039969,115.907747 C268.039969,114.505302 269.173177,113.372095 270.575621,113.372095 C271.974048,113.372095 273.107255,114.505302 273.107255,115.907747 C273.107255,117.310192 271.974048,118.447418 270.575621,118.447418 Z M276.537016,129.427877 C275.134571,129.427877 273.997345,128.290651 273.997345,126.892225 C273.997345,125.493798 275.134571,124.356572 276.537016,124.356572 C277.939461,124.356572 279.072668,125.493798 279.072668,126.892225 C279.072668,128.290651 277.939461,129.427877 276.537016,129.427877 Z M269.06508,138.115801 C267.666654,138.115801 266.525409,136.986612 266.525409,135.580148 C266.525409,134.181722 267.666654,133.044496 269.06508,133.044496 C270.467525,133.044496 271.600732,134.181722 271.600732,135.580148 C271.600732,136.986612 270.467525,138.115801 269.06508,138.115801 Z M261.653421,146.706478 C260.254995,146.706478 259.117769,145.57327 259.117769,144.174844 C259.117769,142.772399 260.254995,141.635173 261.653421,141.635173 C263.051847,141.635173 264.189073,142.772399 264.189073,144.174844 C264.189073,145.57327 263.051847,146.706478 261.653421,146.706478 Z M255.429219,135.78067 C254.030792,135.78067 252.893567,134.643444 252.893567,133.249036 C252.893567,131.842573 254.030792,130.709366 255.429219,130.709366 C256.831663,130.709366 257.968889,131.842573 257.968889,133.249036 C257.968889,134.643444 256.831663,135.78067 255.429219,135.78067 Z M248.319748,144.71573 C246.917304,144.71573 245.784096,143.582522 245.784096,142.176059 C245.784096,140.777633 246.917304,139.640407 248.319748,139.640407 C249.722193,139.640407 250.8554,140.777633 250.8554,142.176059 C250.8554,143.582522 249.722193,144.71573 248.319748,144.71573 Z M242.686662,154.699207 C241.288236,154.699207 240.15101,153.570018 240.15101,152.167573 C240.15101,150.765128 241.288236,149.627903 242.686662,149.627903 C244.089107,149.627903 245.226333,150.765128 245.226333,152.167573 C245.226333,153.570018 244.089107,154.699207 242.686662,154.699207 Z M255.243164,155.98592 C253.844737,155.98592 252.707512,154.848694 252.707512,153.446249 C252.707512,152.047823 253.844737,150.914615 255.243164,150.914615 C256.64159,150.914615 257.782834,152.047823 257.782834,153.446249 C257.782834,154.848694 256.64159,155.98592 255.243164,155.98592 Z M249.577528,165.996723 C248.179102,165.996723 247.045894,164.863515 247.045894,163.465089 C247.045894,162.066663 248.179102,160.933455 249.577528,160.933455 C250.971936,160.933455 252.109162,162.066663 252.109162,163.465089 C252.109162,164.863515 250.971936,165.996723 249.577528,165.996723 Z M255.514008,177.816237 C254.119601,177.816237 252.986393,176.68303 252.986393,175.284604 C252.986393,173.890196 254.119601,172.756988 255.514008,172.756988 C256.912435,172.756988 258.045642,173.890196 258.045642,175.284604 C258.045642,176.68303 256.912435,177.816237 255.514008,177.816237 Z M261.406285,167.641883 C260.003841,167.641883 258.870633,166.508675 258.870633,165.106231 C258.870633,163.707804 260.003841,162.570579 261.406285,162.570579 C262.80873,162.570579 263.945956,163.707804 263.945956,165.106231 C263.945956,166.508675 262.80873,167.641883 261.406285,167.641883 Z M267.349195,179.21386 C265.950769,179.21386 264.813543,178.084671 264.813543,176.678208 C264.813543,175.279782 265.950769,174.138537 267.349195,174.138537 C268.747621,174.138537 269.888866,175.279782 269.888866,176.678208 C269.888866,178.084671 268.747621,179.21386 267.349195,179.21386 Z M262.221632,189.588736 C260.823206,189.588736 259.689998,188.45151 259.689998,187.057102 C259.689998,185.658676 260.823206,184.529487 262.221632,184.529487 C263.61604,184.529487 264.749247,185.658676 264.749247,187.057102 C264.749247,188.45151 263.61604,189.588736 262.221632,189.588736 Z M279.345522,180.313312 C277.943077,180.313312 276.805852,179.176086 276.805852,177.773642 C276.805852,176.375215 277.943077,175.233971 279.345522,175.233971 C280.743948,175.233971 281.881174,176.375215 281.881174,177.773642 C281.881174,179.176086 280.743948,180.313312 279.345522,180.313312 Z M286.411593,172.537982 C285.009148,172.537982 283.875941,171.400756 283.875941,169.998311 C283.875941,168.595867 285.009148,167.462659 286.411593,167.462659 C287.810019,167.462659 288.951264,168.595867 288.951264,169.998311 C288.951264,171.400756 287.810019,172.537982 286.411593,172.537982 Z M293.590583,163.81992 C292.188138,163.81992 291.050912,162.682694 291.050912,161.280249 C291.050912,159.881823 292.188138,158.744597 293.590583,158.744597 C294.993028,158.744597 296.126235,159.881823 296.126235,161.280249 C296.126235,162.682694 294.993028,163.81992 293.590583,163.81992 Z M288.208651,151.87744 C286.806206,151.87744 285.672999,150.744232 285.672999,149.345806 C285.672999,147.943362 286.806206,146.802117 288.208651,146.802117 C289.615114,146.802117 290.748322,147.943362 290.748322,149.345806 C290.748322,150.744232 289.615114,151.87744 288.208651,151.87744 Z M280.853251,160.608361 C279.454824,160.608361 278.31358,159.475154 278.31358,158.076728 C278.31358,156.674283 279.454824,155.537057 280.853251,155.537057 C282.251677,155.537057 283.388903,156.674283 283.388903,158.076728 C283.388903,159.475154 282.251677,160.608361 280.853251,160.608361 Z M273.644524,169.314368 C272.242079,169.314368 271.108872,168.177143 271.108872,166.778716 C271.108872,165.376272 272.242079,164.247083 273.644524,164.247083 C275.04295,164.247083 276.180176,165.376272 276.180176,166.778716 C276.180176,168.177143 275.04295,169.314368 273.644524,169.314368 Z M267.840252,157.964613 C266.441825,157.964613 265.308618,156.827387 265.308618,155.424942 C265.308618,154.026516 266.441825,152.893308 267.840252,152.893308 C269.242696,152.893308 270.379922,154.026516 270.379922,155.424942 C270.379922,156.827387 269.242696,157.964613 267.840252,157.964613 Z M275.029288,149.228467 C273.630861,149.228467 272.493635,148.091241 272.493635,146.692815 C272.493635,145.294389 273.630861,144.157163 275.029288,144.157163 C276.431732,144.157163 277.568958,145.294389 277.568958,146.692815 C277.568958,148.091241 276.431732,149.228467 275.029288,149.228467 Z M282.46988,140.509601 C281.067435,140.509601 279.934227,139.372375 279.934227,137.96993 C279.934227,136.575523 281.067435,135.434278 282.46988,135.434278 C283.872324,135.434278 285.005532,136.575523 285.005532,137.96993 C285.005532,139.372375 283.872324,140.509601 282.46988,140.509601 Z M289.979589,131.717197 C288.581163,131.717197 287.443937,130.579971 287.443937,129.177526 C287.443937,127.7791 288.581163,126.641874 289.979589,126.641874 C291.382034,126.641874 292.51926,127.7791 292.51926,129.177526 C292.51926,130.579971 291.382034,131.717197 289.979589,131.717197 Z M295.662102,142.92269 C294.263676,142.92269 293.12645,141.789482 293.12645,140.387038 C293.12645,138.984593 294.263676,137.847367 295.662102,137.847367 C297.064547,137.847367 298.197754,138.984593 298.197754,140.387038 C298.197754,141.789482 297.064547,142.92269 295.662102,142.92269 Z M302.971692,133.485322 C301.573266,133.485322 300.43604,132.348096 300.43604,130.945651 C300.43604,129.543207 301.573266,128.409999 302.971692,128.409999 C304.378155,128.409999 305.511362,129.543207 305.511362,130.945651 C305.511362,132.348096 304.378155,133.485322 302.971692,133.485322 Z M310.048211,123.715225 C308.645766,123.715225 307.50854,122.582018 307.50854,121.183591 C307.50854,119.781147 308.645766,118.643921 310.048211,118.643921 C311.446637,118.643921 312.583863,119.781147 312.583863,121.183591 C312.583863,122.582018 311.446637,123.715225 310.048211,123.715225 Z M317.029492,113.687143 C315.631066,113.687143 314.49384,112.549917 314.49384,111.147472 C314.49384,109.749046 315.631066,108.61182 317.029492,108.61182 C318.431937,108.61182 319.565144,109.749046 319.565144,111.147472 C319.565144,112.549917 318.431937,113.687143 317.029492,113.687143 Z M315.685315,135.116016 C314.28287,135.116016 313.149663,133.986827 313.149663,132.584382 C313.149663,131.181937 314.28287,130.044711 315.685315,130.044711 C317.08776,130.044711 318.224986,131.181937 318.224986,132.584382 C318.224986,133.986827 317.08776,135.116016 315.685315,135.116016 Z M308.35724,144.977734 C306.954796,144.977734 305.81757,143.840508 305.81757,142.438063 C305.81757,141.043655 306.954796,139.906429 308.35724,139.906429 C309.755666,139.906429 310.892892,141.043655 310.892892,142.438063 C310.892892,143.840508 309.755666,144.977734 308.35724,144.977734 Z M300.978533,154.61281 C299.576088,154.61281 298.442881,153.479602 298.442881,152.081176 C298.442881,150.678731 299.576088,149.541506 300.978533,149.541506 C302.380977,149.541506 303.514185,150.678731 303.514185,152.081176 C303.514185,153.479602 302.380977,154.61281 300.978533,154.61281 Z M305.447871,167.064429 C304.045426,167.064429 302.912218,165.931222 302.912218,164.532796 C302.912218,163.130351 304.045426,161.993125 305.447871,161.993125 C306.850315,161.993125 307.983523,163.130351 307.983523,164.532796 C307.983523,165.931222 306.850315,167.064429 305.447871,167.064429 Z M309.987934,178.963911 C308.589508,178.963911 307.452282,177.826685 307.452282,176.424241 C307.452282,175.025814 308.589508,173.892607 309.987934,173.892607 C311.390379,173.892607 312.527604,175.025814 312.527604,176.424241 C312.527604,177.826685 311.390379,178.963911 309.987934,178.963911 Z M314.737761,190.682964 C313.335316,190.682964 312.19809,189.549756 312.19809,188.143293 C312.19809,186.744867 313.335316,185.611659 314.737761,185.611659 C316.136187,185.611659 317.277432,186.744867 317.277432,188.143293 C317.277432,189.549756 316.136187,190.682964 314.737761,190.682964 Z M301.721949,189.219438 C300.319505,189.219438 299.186297,188.086231 299.186297,186.679768 C299.186297,185.28536 300.319505,184.148135 301.721949,184.148135 C303.120375,184.148135 304.257601,185.28536 304.257601,186.679768 C304.257601,188.086231 303.120375,189.219438 301.721949,189.219438 Z M297.238145,177.31634 C295.839718,177.31634 294.698474,176.183133 294.698474,174.77667 C294.698474,173.382262 295.839718,172.241017 297.238145,172.241017 C298.636571,172.241017 299.773797,173.382262 299.773797,174.77667 C299.773797,176.183133 298.636571,177.31634 297.238145,177.31634 Z M288.766414,187.850749 C287.36397,187.850749 286.226744,186.713523 286.226744,185.315097 C286.226744,183.912652 287.36397,182.775427 288.766414,182.775427 C290.164841,182.775427 291.302066,183.912652 291.302066,185.315097 C291.302066,186.713523 290.164841,187.850749 288.766414,187.850749 Z M282.087723,200.121537 C280.685279,200.121537 279.552071,198.984311 279.552071,197.581867 C279.552071,196.179422 280.685279,195.046214 282.087723,195.046214 C283.490168,195.046214 284.623376,196.179422 284.623376,197.581867 C284.623376,198.984311 283.490168,200.121537 282.087723,200.121537 Z M275.060632,190.260221 C273.658187,190.260221 272.520961,189.122995 272.520961,187.720551 C272.520961,186.318106 273.658187,185.184899 275.060632,185.184899 C276.459058,185.184899 277.596284,186.318106 277.596284,187.720551 C277.596284,189.122995 276.459058,190.260221 275.060632,190.260221 Z M269.338738,200.490834 C267.940311,200.490834 266.811122,199.357627 266.811122,197.963219 C266.811122,196.564793 267.940311,195.431585 269.338738,195.431585 C270.737164,195.431585 271.870371,196.564793 271.870371,197.963219 C271.870371,199.357627 270.737164,200.490834 269.338738,200.490834 Z M275.594686,211.587829 C274.200278,211.587829 273.067071,210.45864 273.067071,209.060214 C273.067071,207.665806 274.200278,206.532598 275.594686,206.532598 C276.993112,206.532598 278.12632,207.665806 278.12632,209.060214 C278.12632,210.45864 276.993112,211.587829 275.594686,211.587829 Z M287.53596,212.061606 C286.137534,212.061606 284.996289,210.92438 284.996289,209.525954 C284.996289,208.123509 286.137534,206.990302 287.53596,206.990302 C288.938405,206.990302 290.075631,208.123509 290.075631,209.525954 C290.075631,210.92438 288.938405,212.061606 287.53596,212.061606 Z M299.487682,211.89926 C298.085237,211.89926 296.948011,210.766052 296.948011,209.363608 C296.948011,207.961163 298.085237,206.823937 299.487682,206.823937 C300.886108,206.823937 302.023334,207.961163 302.023334,209.363608 C302.023334,210.766052 300.886108,211.89926 299.487682,211.89926 Z M293.784273,224.587969 C292.37781,224.587969 291.244602,223.450743 291.244602,222.048298 C291.244602,220.645854 292.37781,219.512646 293.784273,219.512646 C295.182699,219.512646 296.319925,220.645854 296.319925,222.048298 C296.319925,223.450743 295.182699,224.587969 293.784273,224.587969 Z M282.168896,224.008104 C280.77047,224.008104 279.637263,222.878915 279.637263,221.480489 C279.637263,220.086081 280.77047,218.952874 282.168896,218.952874 C283.567323,218.952874 284.70053,220.086081 284.70053,221.480489 C284.70053,222.878915 283.567323,224.008104 282.168896,224.008104 Z M290.644244,236.656227 C289.241799,236.656227 288.104573,235.523019 288.104573,234.124593 C288.104573,232.722148 289.241799,231.584922 290.644244,231.584922 C292.04267,231.584922 293.179896,232.722148 293.179896,234.124593 C293.179896,235.523019 292.04267,236.656227 290.644244,236.656227 Z M297.921284,248.723279 C296.518839,248.723279 295.385632,247.586053 295.385632,246.183608 C295.385632,244.781163 296.518839,243.647956 297.921284,243.647956 C299.31971,243.647956 300.456936,244.781163 300.456936,246.183608 C300.456936,247.586053 299.31971,248.723279 297.921284,248.723279 Z M304.425975,236.593539 C303.027548,236.593539 301.890323,235.46435 301.890323,234.061905 C301.890323,232.65946 303.027548,231.522234 304.425975,231.522234 C305.828419,231.522234 306.965645,232.65946 306.965645,234.061905 C306.965645,235.46435 305.828419,236.593539 304.425975,236.593539 Z M318.361614,239.034355 C316.959169,239.034355 315.821943,237.901147 315.821943,236.498703 C315.821943,235.096258 316.959169,233.959032 318.361614,233.959032 C319.76004,233.959032 320.897266,235.096258 320.897266,236.498703 C320.897266,237.901147 319.76004,239.034355 318.361614,239.034355 Z M310.993354,249.59609 C309.586891,249.59609 308.453683,248.458864 308.453683,247.052401 C308.453683,245.653974 309.586891,244.524785 310.993354,244.524785 C312.39178,244.524785 313.529006,245.653974 313.529006,247.052401 C313.529006,248.458864 312.39178,249.59609 310.993354,249.59609 Z M304.666681,261.809816 C303.264236,261.809816 302.12701,260.67259 302.12701,259.274164 C302.12701,257.871719 303.264236,256.738512 304.666681,256.738512 C306.065107,256.738512 307.202333,257.871719 307.202333,259.274164 C307.202333,260.67259 306.065107,261.809816 304.666681,261.809816 Z M311.737976,275.37656 C310.520381,275.37656 309.535856,274.392035 309.535856,273.170422 C309.535856,271.956845 310.520381,270.968302 311.737976,270.968302 C312.955571,270.968302 313.944114,271.956845 313.944114,273.170422 C313.944114,274.392035 312.955571,275.37656 311.737976,275.37656 Z M317.017437,262.432678 C315.614992,262.432678 314.485803,261.303489 314.485803,259.905063 C314.485803,258.502618 315.614992,257.373429 317.017437,257.373429 C318.411845,257.373429 319.54907,258.502618 319.54907,259.905063 C319.54907,261.303489 318.411845,262.432678 317.017437,262.432678 Z M324.705164,251.221559 C323.367015,251.221559 322.278011,250.136573 322.278011,248.794406 C322.278011,247.456256 323.367015,246.371271 324.705164,246.371271 C326.047332,246.371271 327.132318,247.456256 327.132318,248.794406 C327.132318,250.136573 326.047332,251.221559 324.705164,251.221559 Z M331.751947,239.295957 C330.405761,239.295957 329.312738,238.202934 329.312738,236.856748 C329.312738,235.506543 330.405761,234.417539 331.751947,234.417539 C333.102151,234.417539 334.195174,235.506543 334.195174,236.856748 C334.195174,238.202934 333.102151,239.295957 331.751947,239.295957 Z M327.256087,227.551186 C325.857661,227.551186 324.720435,226.417978 324.720435,225.015534 C324.720435,223.617107 325.857661,222.479882 327.256087,222.479882 C328.66255,222.479882 329.795757,223.617107 329.795757,225.015534 C329.795757,226.417978 328.66255,227.551186 327.256087,227.551186 Z M315.42733,226.65989 C314.028903,226.65989 312.891677,225.526683 312.891677,224.120219 C312.891677,222.725812 314.028903,221.584567 315.42733,221.584567 C316.829774,221.584567 317.967,222.725812 317.967,224.120219 C317.967,225.526683 316.829774,226.65989 315.42733,226.65989 Z M304.677129,223.559242 C303.274684,223.559242 302.137458,222.426034 302.137458,221.027608 C302.137458,219.629182 303.274684,218.487937 304.677129,218.487937 C306.075555,218.487937 307.212781,219.629182 307.212781,221.027608 C307.212781,222.426034 306.075555,223.559242 304.677129,223.559242 Z M311.907957,213.210887 C310.509531,213.210887 309.372305,212.073661 309.372305,210.671217 C309.372305,209.27279 310.509531,208.135564 311.907957,208.135564 C313.31442,208.135564 314.447628,209.27279 314.447628,210.671217 C314.447628,212.073661 313.31442,213.210887 311.907957,213.210887 Z M294.218669,199.898111 C292.816225,199.898111 291.678999,198.760885 291.678999,197.35844 C291.678999,195.960014 292.816225,194.822788 294.218669,194.822788 C295.621114,194.822788 296.754321,195.960014 296.754321,197.35844 C296.754321,198.760885 295.621114,199.898111 294.218669,199.898111 Z M306.831429,201.081147 C305.433002,201.081147 304.295776,199.943921 304.295776,198.541476 C304.295776,197.139032 305.433002,196.005824 306.831429,196.005824 C308.233873,196.005824 309.371099,197.139032 309.371099,198.541476 C309.371099,199.943921 308.233873,201.081147 306.831429,201.081147 Z M319.487186,202.598118 C318.084741,202.598118 316.947515,201.464911 316.947515,200.066484 C316.947515,198.66404 318.084741,197.526814 319.487186,197.526814 C320.889631,197.526814 322.022838,198.66404 322.022838,200.066484 C322.022838,201.464911 320.889631,202.598118 319.487186,202.598118 Z M323.718631,215.235391 C322.316186,215.235391 321.182979,214.098165 321.182979,212.69572 C321.182979,211.301312 322.316186,210.164086 323.718631,210.164086 C325.121076,210.164086 326.258302,211.301312 326.258302,212.69572 C326.258302,214.098165 325.121076,215.235391 323.718631,215.235391 Z M335.979373,215.721223 C334.576929,215.721223 333.443721,214.583997 333.443721,213.181553 C333.443721,211.783126 334.576929,210.6459 335.979373,210.6459 C337.3778,210.6459 338.515025,211.783126 338.515025,213.181553 C338.515025,214.583997 337.3778,215.721223 335.979373,215.721223 Z M339.32555,226.930735 C338.023567,226.930735 336.970729,225.877897 336.970729,224.575913 C336.970729,223.27393 338.023567,222.217074 339.32555,222.217074 C340.627533,222.217074 341.68439,223.27393 341.68439,224.575913 C341.68439,225.877897 340.627533,226.930735 339.32555,226.930735 Z M348.418937,214.46063 C347.329933,214.46063 346.449889,213.580586 346.449889,212.491582 C346.449889,211.406596 347.329933,210.522533 348.418937,210.522533 C349.503923,210.522533 350.387986,211.406596 350.387986,212.491582 C350.387986,213.580586 349.503923,214.46063 348.418937,214.46063 Z M344.78986,204.921193 C343.387416,204.921193 342.25019,203.783967 342.25019,202.385541 C342.25019,200.987115 343.387416,199.849889 344.78986,199.849889 C346.188287,199.849889 347.325513,200.987115 347.325513,202.385541 C347.325513,203.783967 346.188287,204.921193 344.78986,204.921193 Z M331.902237,204.0086 C330.499793,204.0086 329.366585,202.867355 329.366585,201.468929 C329.366585,200.066484 330.499793,198.933277 331.902237,198.933277 C333.300664,198.933277 334.441908,200.066484 334.441908,201.468929 C334.441908,202.867355 333.300664,204.0086 331.902237,204.0086 Z M340.994419,193.80049 C339.595993,193.80049 338.458767,192.663264 338.458767,191.264838 C338.458767,189.862393 339.595993,188.725167 340.994419,188.725167 C342.392845,188.725167 343.53409,189.862393 343.53409,191.264838 C343.53409,192.663264 342.392845,193.80049 340.994419,193.80049 Z M354.786197,198.097034 C353.403845,198.097034 352.286711,196.971863 352.286711,195.59353 C352.286711,194.211177 353.403845,193.090025 354.786197,193.090025 C356.168549,193.090025 357.289701,194.211177 357.289701,195.59353 C357.289701,196.971863 356.168549,198.097034 354.786197,198.097034 Z M362.786963,186.259034 C361.513109,186.259034 360.484382,185.230308 360.484382,183.956454 C360.484382,182.686618 361.513109,181.657891 362.786963,181.657891 C364.056799,181.657891 365.085526,182.686618 365.085526,183.956454 C365.085526,185.230308 364.056799,186.259034 362.786963,186.259034 Z M369.715603,173.836348 C368.365398,173.836348 367.272375,172.739307 367.272375,171.389103 C367.272375,170.038898 368.365398,168.937838 369.715603,168.937838 C371.065807,168.937838 372.162849,170.038898 372.162849,171.389103 C372.162849,172.739307 371.065807,173.836348 369.715603,173.836348 Z M356.945721,174.160639 C355.543276,174.160639 354.410069,173.027431 354.410069,171.624987 C354.410069,170.22656 355.543276,169.093353 356.945721,169.093353 C358.348165,169.093353 359.485391,170.22656 359.485391,171.624987 C359.485391,173.027431 358.348165,174.160639 356.945721,174.160639 Z M349.882463,185.13507 C348.476,185.13507 347.346811,184.001862 347.346811,182.603436 C347.346811,181.200992 348.476,180.063766 349.882463,180.063766 C351.280889,180.063766 352.422133,181.200992 352.422133,182.603436 C352.422133,184.001862 351.280889,185.13507 349.882463,185.13507 Z M336.246199,182.349871 C334.847773,182.349871 333.710547,181.212645 333.710547,179.8102 C333.710547,178.415793 334.847773,177.278567 336.246199,177.278567 C337.652663,177.278567 338.78587,178.415793 338.78587,179.8102 C338.78587,181.212645 337.652663,182.349871 336.246199,182.349871 Z M327.753573,192.182655 C326.355147,192.182655 325.217921,191.04543 325.217921,189.647003 C325.217921,188.244559 326.355147,187.111351 327.753573,187.111351 C329.156018,187.111351 330.293244,188.244559 330.293244,189.647003 C330.293244,191.04543 329.156018,192.182655 327.753573,192.182655 Z M322.994905,180.502984 C321.588442,180.502984 320.455235,179.369776 320.455235,177.97135 C320.455235,176.564887 321.588442,175.43168 322.994905,175.43168 C324.393332,175.43168 325.530557,176.564887 325.530557,177.97135 C325.530557,179.369776 324.393332,180.502984 322.994905,180.502984 Z M318.100012,168.840591 C316.693548,168.840591 315.564359,167.707384 315.564359,166.304939 C315.564359,164.906513 316.693548,163.765269 318.100012,163.765269 C319.502456,163.765269 320.635664,164.906513 320.635664,166.304939 C320.635664,167.707384 319.502456,168.840591 318.100012,168.840591 Z M325.925171,158.800855 C324.522726,158.800855 323.389519,157.663629 323.389519,156.261185 C323.389519,154.85874 324.522726,153.729551 325.925171,153.729551 C327.327616,153.729551 328.460823,154.85874 328.460823,156.261185 C328.460823,157.663629 327.327616,158.800855 325.925171,158.800855 Z M313.290309,156.979285 C311.891883,156.979285 310.754657,155.846077 310.754657,154.443632 C310.754657,153.041188 311.891883,151.903962 313.290309,151.903962 C314.692754,151.903962 315.82998,153.041188 315.82998,154.443632 C315.82998,155.846077 314.692754,156.979285 313.290309,156.979285 Z M320.822121,146.892533 C319.423694,146.892533 318.286468,145.755307 318.286468,144.352862 C318.286468,142.954436 319.423694,141.821228 320.822121,141.821228 C322.220547,141.821228 323.361791,142.954436 323.361791,144.352862 C323.361791,145.755307 322.220547,146.892533 320.822121,146.892533 Z M333.275347,148.494293 C331.868884,148.494293 330.735677,147.357067 330.735677,145.954623 C330.735677,144.556196 331.868884,143.422989 333.275347,143.422989 C334.673774,143.422989 335.806981,144.556196 335.806981,145.954623 C335.806981,147.357067 334.673774,148.494293 333.275347,148.494293 Z M345.592348,149.74926 C344.193922,149.74926 343.056696,148.616053 343.056696,147.217627 C343.056696,145.815182 344.193922,144.677956 345.592348,144.677956 C346.994793,144.677956 348.128,145.815182 348.128,147.217627 C348.128,148.616053 346.994793,149.74926 345.592348,149.74926 Z M338.604637,160.52317 C337.202193,160.52317 336.064967,159.385944 336.064967,157.987518 C336.064967,156.585073 337.202193,155.447847 338.604637,155.447847 C340.007082,155.447847 341.140289,156.585073 341.140289,157.987518 C341.140289,159.385944 340.007082,160.52317 338.604637,160.52317 Z M331.072424,170.630818 C329.673998,170.630818 328.536772,169.493592 328.536772,168.091147 C328.536772,166.688703 329.673998,165.555495 331.072424,165.555495 C332.474869,165.555495 333.608076,166.688703 333.608076,168.091147 C333.608076,169.493592 332.474869,170.630818 331.072424,170.630818 Z M344.147308,172.709169 C342.748881,172.709169 341.611656,171.571943 341.611656,170.169498 C341.611656,168.771072 342.748881,167.637864 344.147308,167.637864 C345.549752,167.637864 346.686978,168.771072 346.686978,170.169498 C346.686978,171.571943 345.549752,172.709169 344.147308,172.709169 Z M351.103273,161.914363 C349.704847,161.914363 348.567621,160.781156 348.567621,159.378711 C348.567621,157.976266 349.704847,156.843059 351.103273,156.843059 C352.505717,156.843059 353.642943,157.976266 353.642943,159.378711 C353.642943,160.781156 352.505717,161.914363 351.103273,161.914363 Z M357.795225,150.492676 C356.396798,150.492676 355.259572,149.355451 355.259572,147.957024 C355.259572,146.55458 356.396798,145.421372 357.795225,145.421372 C359.193651,145.421372 360.334895,146.55458 360.334895,147.957024 C360.334895,149.355451 359.193651,150.492676 357.795225,150.492676 Z M370.178932,150.365693 C368.780506,150.365693 367.64328,149.228467 367.64328,147.826022 C367.64328,146.423578 368.780506,145.29037 370.178932,145.29037 C371.581377,145.29037 372.714584,146.423578 372.714584,147.826022 C372.714584,149.228467 371.581377,150.365693 370.178932,150.365693 Z M363.590657,162.308575 C362.19223,162.308575 361.055004,161.175367 361.055004,159.772922 C361.055004,158.370478 362.19223,157.23727 363.590657,157.23727 C364.989083,157.23727 366.130327,158.370478 366.130327,159.772922 C366.130327,161.175367 364.989083,162.308575 363.590657,162.308575 Z M376.169259,161.735139 C374.811018,161.735139 373.709958,160.630061 373.709958,159.275838 C373.709958,157.913578 374.811018,156.812518 376.169259,156.812518 C377.527501,156.812518 378.628561,157.913578 378.628561,159.275838 C378.628561,160.630061 377.527501,161.735139 376.169259,161.735139 Z M382.901396,150.088419 C381.511007,150.088419 380.385836,148.963248 380.385836,147.572859 C380.385836,146.186488 381.511007,145.057299 382.901396,145.057299 C384.291785,145.057299 385.420974,146.186488 385.420974,147.572859 C385.420974,148.963248 384.291785,150.088419 382.901396,150.088419 Z M377.281571,138.695263 C375.879126,138.695263 374.745919,137.562056 374.745919,136.159611 C374.745919,134.761185 375.879126,133.623959 377.281571,133.623959 C378.679997,133.623959 379.817223,134.761185 379.817223,136.159611 C379.817223,137.562056 378.679997,138.695263 377.281571,138.695263 Z M389.725555,138.300248 C388.335166,138.300248 387.201958,137.171059 387.201958,135.78067 C387.201958,134.382244 388.335166,133.257073 389.725555,133.257073 C391.119963,133.257073 392.249152,134.382244 392.249152,135.78067 C392.249152,137.171059 391.119963,138.300248 389.725555,138.300248 Z M384.850352,127.123286 C383.451926,127.123286 382.318718,125.98606 382.318718,124.583616 C382.318718,123.181171 383.451926,122.047964 384.850352,122.047964 C386.252797,122.047964 387.386004,123.181171 387.386004,124.583616 C387.386004,125.98606 386.252797,127.123286 384.850352,127.123286 Z M378.712145,116.029909 C377.313719,116.029909 376.176493,114.892683 376.176493,113.494256 C376.176493,112.09583 377.313719,110.958604 378.712145,110.958604 C380.110571,110.958604 381.251816,112.09583 381.251816,113.494256 C381.251816,114.892683 380.110571,116.029909 378.712145,116.029909 Z M391.58932,115.781166 C390.190894,115.781166 389.053668,114.64394 389.053668,113.245513 C389.053668,111.843069 390.190894,110.709861 391.58932,110.709861 C392.987746,110.709861 394.128991,111.843069 394.128991,113.245513 C394.128991,114.64394 392.987746,115.781166 391.58932,115.781166 Z M397.812317,126.588027 C396.486223,126.588027 395.409274,125.511078 395.409274,124.180965 C395.409274,122.854872 396.486223,121.777923 397.812317,121.777923 C399.142429,121.777923 400.219378,122.854872 400.219378,124.180965 C400.219378,125.511078 399.142429,126.588027 397.812317,126.588027 Z M404.290888,114.015853 C402.960776,114.015853 401.87579,112.934886 401.87579,111.600755 C401.87579,110.270643 402.960776,109.185657 404.290888,109.185657 C405.621,109.185657 406.697949,110.270643 406.697949,111.600755 C406.697949,112.934886 405.621,114.015853 404.290888,114.015853 Z M409.77087,102.101905 C408.372444,102.101905 407.235218,100.964679 407.235218,99.5622342 C407.235218,98.1597894 408.372444,97.0225635 409.77087,97.0225635 C411.169297,97.0225635 412.310541,98.1597894 412.310541,99.5622342 C412.310541,100.964679 411.169297,102.101905 409.77087,102.101905 Z" opacity=".215" transform="rotate(158 310.969 180.68)"></path><path fill="url(#hp_background-d)" fill-rule="nonzero" d="M1200.60166,127.222751 L1200.60417,127.222751 L1199.10843,128.718497 L1199.10642,128.720505 C1264.00297,193.617325 1264.00539,299.212777 1199.10868,364.109492 C1199.08107,364.137098 1199.05347,364.162195 1199.02837,364.187291 L1197.53262,362.691545 C1197.55772,362.666449 1197.58533,362.641353 1197.61293,362.613747 C1261.68657,298.54011 1261.68657,194.289637 1197.61293,130.216 L1198.80752,129.019403 L1197.61268,130.214243 L1196.11694,131.709989 L1196.11694,131.707479 L1196.11568,131.708734 C1132.86772,68.4607693 1029.95488,68.4607693 966.706916,131.708734 L962.219678,127.221496 C1027.93964,61.5015357 1134.88045,61.5015357 1200.60292,127.221496 L1200.60166,127.222751 Z M1189.09145,138.735226 L1188.1945,139.632673 C1129.3108,80.7514837 1033.51029,80.7539933 974.631608,139.632673 L970.144371,135.145436 C1031.49747,73.7923337 1131.32577,73.79225 1192.67898,135.145185 L1192.68149,135.145185 L1191.18574,136.640931 L1189.69,138.136677 L1189.09145,138.735226 Z M1181.76706,146.060114 L1180.27132,147.55586 L1180.27132,147.55335 L1184.75604,143.068623 L1184.75604,143.071132 L1183.26318,144.563992 C1239.42355,200.724764 1239.42091,292.103007 1183.26281,348.263621 C1183.2352,348.291227 1183.2076,348.313814 1183.17999,348.34142 L1181.68424,346.845674 C1181.71185,346.818068 1181.73946,346.795481 1181.76706,346.767875 C1237.102,291.432933 1237.10213,201.397347 1181.76744,146.059738 L1181.76706,146.060114 Z M1176.83261,150.993064 L1176.83261,150.994319 L1175.33786,152.489061 C1227.12932,204.280516 1227.12681,288.55174 1175.33786,340.338176 C1175.31026,340.368291 1175.28516,340.390878 1175.25756,340.418484 L1173.76181,338.922738 C1173.78942,338.895132 1173.81451,338.872546 1173.84212,338.84494 C1224.8079,287.879156 1224.8079,204.948081 1173.84463,153.982297 L1173.84362,153.983301 L1172.34788,155.479047 L1172.34537,155.479047 L1174.58924,153.235177 L1172.34562,155.477541 C1122.203,105.339939 1040.61709,105.339939 990.476978,155.477541 L985.99225,150.992813 C1038.60687,98.378196 1124.21824,98.378196 1176.83286,150.992813 L1176.83261,150.993064 Z M1168.01197,159.8142 L1167.41267,160.413502 L1165.91943,161.906738 L1164.4262,163.402484 L1164.42369,163.399975 C1118.65309,117.629148 1044.17216,117.631741 998.401419,163.402484 L993.914182,158.915247 C1042.157,110.669914 1120.66108,110.669914 1168.90892,158.917756 L1168.01197,159.8142 Z M1160.98423,166.840441 L1160.98423,166.8427 L1159.49099,168.335936 L1158.74261,169.084311 L1159.48999,168.33694 C1202.54287,211.389826 1202.54287,281.441426 1159.48999,324.491802 C1159.46238,324.519409 1159.43728,324.544505 1159.40968,324.569601 L1157.91393,323.076365 C1157.94154,323.048759 1157.96914,323.023663 1157.99424,322.996057 C1200.22396,280.768842 1200.22145,212.0599 1157.99424,169.832686 L1158.74261,169.084311 L1157.99524,169.831682 L1156.4995,171.329937 L1156.49699,171.327428 C1115.09376,129.922623 1047.7276,129.922678 1006.3236,171.324165 L1001.83887,166.839437 C1045.71241,122.965899 1117.10918,122.963389 1160.98523,166.839437 L1160.98423,166.840441 Z M1153.06003,174.765384 L1153.06003,174.764381 L1148.57606,179.248356 C1111.54125,142.21409 1051.28013,142.216767 1014.24804,179.248858 L1009.76081,174.76162 C1049.26757,135.254856 1113.55202,135.257366 1153.06129,174.76413 L1153.06003,174.765384 L1153.06003,174.76689 L1151.5668,176.260126 C1190.25266,214.946259 1190.25007,277.887858 1151.56906,316.568867 C1151.54145,316.596473 1151.51385,316.621569 1151.48875,316.649175 L1149.993,315.153429 C1150.02061,315.125823 1150.04571,315.103237 1150.07331,315.075631 C1187.93116,277.217784 1187.93124,215.616334 1150.07105,177.755873 L1149.17361,178.651815 L1153.06003,174.765384 Z M1142.66993,185.155611 L1144.68913,183.137546 L1143.64336,184.183314 L1142.14762,185.679059 L1140.65187,187.174805 L1142.66993,185.155611 L1140.65061,187.173801 C1107.98513,154.508318 1054.83596,154.508318 1022.17048,187.173801 L1019.92937,184.930183 L1017.68575,182.686564 C1052.82317,147.54914 1109.99768,147.549084 1145.13769,182.688907 L1142.66993,185.155611 Z M1191.18499,136.642186 C1251.71501,197.1697 1251.71752,295.658039 1191.1875,356.188062 C1191.15989,356.215669 1191.13229,356.238255 1191.10468,356.265861 L1189.60894,354.770115 C1189.63654,354.745019 1189.66415,354.719923 1189.69175,354.692317 C1249.39611,294.987965 1249.3936,197.839774 1189.68924,138.137931 L1191.18499,136.642186 Z M1167.41367,160.412749 C1214.83584,207.83492 1214.83584,284.993822 1167.41367,332.415993 C1167.38607,332.443599 1167.36097,332.466186 1167.33337,332.493792 L1165.83762,330.998046 C1165.86523,330.97044 1165.89283,330.947853 1165.92044,330.920247 C1212.51443,284.326258 1212.51694,208.504994 1165.92044,161.905986 L1167.41367,160.412749 Z M1143.64361,184.183314 C1177.95793,218.49763 1177.95793,274.332116 1143.64612,308.646433 C1143.61601,308.674039 1143.5884,308.696626 1143.5633,308.724232 L1142.06756,307.228486 C1142.09265,307.20088 1142.12026,307.178293 1142.14787,307.150687 C1175.63902,273.662042 1175.63902,219.167704 1142.14787,185.679059 L1143.64361,184.183314 Z M978.068059,143.068874 C1035.04945,86.0849721 1127.76813,86.0849721 1184.75454,143.068874 L1180.26981,147.553601 C1125.76041,93.0467154 1037.06469,93.0442057 982.555297,147.556111 L978.068059,143.068874 Z" opacity=".127" transform="rotate(43 1105 221.06)"></path></g></svg> 